<?xml version="1.0" encoding="utf-8"?>
<!-- Generator: Adobe Illustrator 24.2.0, SVG Export Plug-In . SVG Version: 6.00 Build 0)  -->
<svg version="1.1" xmlns="http://www.w3.org/2000/svg" xmlns:xlink="http://www.w3.org/1999/xlink" x="0px" y="0px"
	 viewBox="0 0 200.96 182.45" style="enable-background:new 0 0 200.96 182.45;" xml:space="preserve">
<style type="text/css">
	.st0{display:none;}
	.st1{display:inline;}
	.st2{fill:#D71671;}
	.st3{fill:#FFFFFF;}
	.st4{fill:#FFFFFF;stroke:#000000;stroke-width:0.4;}
	.st5{fill:none;stroke:#000000;stroke-width:0.4;}
	.st6{stroke:#000000;stroke-width:0.1;}
	.st7{fill:#FFFFFF;stroke:#000000;stroke-width:0.4;stroke-linejoin:round;}
	.st8{stroke:#000000;stroke-width:0.1;stroke-linecap:square;stroke-linejoin:round;}
	.st9{stroke:#000000;stroke-width:0.1;stroke-linecap:round;stroke-linejoin:round;}
</style>
<g id="Layer_3" class="st0">
	<rect x="-2.98" y="-0.99" class="st1" width="206.93" height="184.25"/>
</g>
<g id="stag_default">
	<path id="heart_1_" class="st2" d="M100.48,23.1c0,0-3.39-4.34-5.83-7.32c-2.43-2.98-3.85-5.66-4.29-9.17
		c-0.44-3.52,0.2-5.71,2.15-5.86c1.95-0.14,4.58-0.39,6,1.37c1.41,1.76,1.97,2.7,1.97,2.7s0.55-0.95,1.97-2.7
		c1.42-1.75,4.05-1.51,6-1.37c1.95,0.15,2.59,2.34,2.15,5.86c-0.44,3.51-1.86,6.19-4.29,9.17C103.87,18.77,100.48,23.1,100.48,23.1z
		"/>
	<g id="antlers">
		<path id="antler_2_" class="st3" d="M111.21,99.52l1.33,0.43l2.19,0.9l1.3,1.11c0,0,12.19-11.83,14.53-13.19
			c2.35-1.36,7.94-3.97,10.35-4.03c2.4-0.07,5.07,0.65,6.63,1.5c1.57,0.85,3.97,3.45,4.62,4.62c0.65,1.17,2.34,4.62,1.04,8.32
			c-1.3,3.71-3.64,7.74-5.33,10.54c-1.7,2.8-6.96,9.82-7.55,10.54c-0.59,0.72-1.3,1.37-2.6,2.34l-1.31,0.97l0.27,0.26
			c0,0,2.86-1.82,3.77-2.67c0.91-0.85,2.47-2.8,2.47-2.8s-1.3,1.76-2.15,3.32c-0.85,1.56-1.37,3.12-1.37,3.12h0.65
			c0,0,3.77-6.25,5.14-8.07c1.37-1.82,2.6-4.3,2.6-4.3l-2.28,6.77c0,0-0.32,2.86-0.97,3.84c-0.65,0.98-1.95,3.71-2.87,4.94
			c-0.91,1.24-0.52,1.17-0.52,1.17l0.58-0.13l2.6-4.1l0.59-1.11v4.23l0.13,2.54l0.78-0.33l0.07-5.92c0,0,1.1-5.99,2.66-9.3
			c1.56-3.32,4.36-9.17,4.62-9.82c0.26-0.65,0.45,0.07,0.45,0.07s-0.78,2.67-1.1,5.21c-0.33,2.54-1.17,6.83-1.69,9.5
			c-0.52,2.67-1.75,8.46-2.35,10.48c-0.58,2.02-1.17,5.01-1.17,5.01h0.58l2.21-8.85l0.07,7.74h1.04c0,0,0.2-8.33,0.33-9.82
			c0.12-1.5,0.52-2.21,0.52-2.21s-0.27,1.83,0.52,4.95c0.78,3.12,2.02,7.48,2.02,7.48l1.04-0.52c0,0-2.08-7.22-2.21-9.17
			c-0.13-1.95,0.13-6.18,0.46-7.55c0.32-1.37,0.45,5.07,1.23,6.83c0.78,1.76,2.34,6.51,3.38,7.81c1.05,1.3,3.52,5.4,3.52,5.4
			l-2.02-4.68c0,0-0.13-0.71,0.14-0.71c0.25,0,2.99,2.67,3.12,2.86c0.13,0.19,0.45-0.33,0.45-0.33s-2.67-3.38-3.97-5.79
			c-1.3-2.4-3.12-7.22-3.9-10.54c-0.78-3.32-1.37-4.94-0.92-7.94c0.46-2.99,1.89-11.51,2.02-13.2c0.13-1.69,0.07-1.96,0.07-1.96
			s2.02,4.95,3.12,7.42c1.1,2.47,5.73,12.49,6.5,14.96c0.78,2.47,2.93,10.41,3,11.97c0.06,1.56,0.71,1.04,0.71,1.04
			s-0.07-1.89-1.17-6.57c-1.1-4.68,1.36,3.06,1.36,3.06s1.3,3.84,1.44,5.01c0.13,1.17-0.39-3.84-0.39-3.84l1.63,4.43l1.62-0.78
			c0,0-3.32-6.83-3.71-8.33c-0.39-1.5-2.27-5.14-2.27-5.14s3.18,5.01,5.46,7.22c2.27,2.21,4.36,4.49,4.36,4.49l1.37-0.72l-2.74-2.4
			l3.84,1.69l0.39-0.52l-3.96-1.89c0,0-2.41-2.6-3.46-4.04c-1.04-1.43-3.77-4.42-4.55-6.31c-0.78-1.88-4.36-7.55-4.49-8.85
			c-0.13-1.3,4.68,5.53,6.7,8c2.02,2.47,4.04,5.86,4.75,7.09c0.71,1.24,1.05,2.15,1.05,2.15l1.36-0.33l-1.5-3.06l4.29,5.33
			l1.04-0.58l-5.98-7.42l-3.38-4.42c0,0,3.77,3.84,6.44,4.95c2.67,1.1,5.15,2.28,5.8,2.92c0.65,0.65,1.62-0.32,1.62-0.32
			s-2.02-0.91-2.54-1.24c-0.52-0.33,1.04-0.19,2.09-0.52c1.04-0.33-0.13-1.37-0.13-1.37s-0.26,0.72-1.75,0.65
			c-1.5-0.06-6.38-1.95-8.72-3.9c-2.34-1.95-6.51-7.03-8.07-8.91c-1.56-1.89-5.07-5.99-5.07-5.99s5.79,3.71,7.61,4.88
			c1.82,1.17,4.88,2.86,5.59,3.45l0.71,0.59l-0.26-1.63c0,0-6.11-3.51-7.48-4.49c-1.37-0.98-1.37-0.78-1.37-0.78s5.27,1.36,5.86,1.5
			c0.59,0.13-6.44-2.47-7.55-3.45c-1.1-0.98-5.27-3.77-6.44-5.14c-1.17-1.37-3.12-4.23-3.83-5.73c-0.72-1.5-3.25-4.23-3.97-4.69
			c-0.72-0.45-1.75-0.52-1.75-0.52s3.18,0.65,6.9,2.67c3.71,2.02,7.29,3.9,8.98,5.21c1.69,1.3,6.31,5.34,8.4,9.17
			c2.08,3.84,2.53,4.88,3.77,7.29l1.24,2.41l1.04-0.78c0,0-1.43-2.34-2.21-3.84c-0.78-1.5,3.52,5.34,3.52,5.34l1.04-0.91l-4.42-5.53
			l-3.12-5.46l2.93,2.47c0,0,0.97,0.46,2.79,2.21c1.82,1.76,4.29,4.81,4.29,4.81l1.3-0.39c0,0-3.58-4.3-4.55-5.01
			c-0.98-0.72-0.33-0.78-0.33-0.78s4.61,2.02,6.11,2.99c1.5,0.97,2.28,0.19,2.28,0.19s-2.47-1.89-3.97-2.6
			c-1.5-0.71-5.34-1.76-5.92-2.28c-0.58-0.52-1.88-1.69-1.88-1.69l9.89,3.38l0.26-0.85l-10.15-3.71c0,0-2.93-1.04-3.77-1.89
			c-0.85-0.85-2.54-2.21-2.54-2.21l-2.67-2.47c0,0,4.03,2.54,4.81,3c0.79,0.46,3.84,1.89,4.82,2.15c0.98,0.26,6.05,2.73,6.05,2.73
			l-4.36-2.6l2.86,0.06c0,0-3.97-0.72-6.31-1.95c-2.34-1.24-9.17-4.81-9.82-5.27c-0.65-0.46,3.91,0.46,5.99,0.78
			c2.08,0.32,5.21,1.43,6.05,3.06c0.84,1.62,0.84,0.32,0.84,0.32s-1.56-2.15-2.54-2.8c-0.97-0.65,1.89,0.46,3,1.63
			c1.1,1.17-0.33-1.63-1.43-2.34c-1.11-0.72-4.75-1.43-4.75-1.43s3.18-0.72,3.44-0.98c0.26-0.26-4.49,0.98-7.28,0.71
			c-2.8-0.26-4.75-1.1-7.29-2.4c-2.54-1.3-8.19-3.25-8.19-3.25s7.61,1.43,8.97,1.88c1.37,0.46,4.76,0.65,5.53,0.85
			c0.78,0.19,2.22,0.91,2.22,0.91s-2.02-1.56-2.74-1.63c-0.71-0.06,2.09-0.26,2.28-0.26c0.19,0-4.03-0.39-5.4-0.52
			c-1.37-0.13-10.41-1.76-11.84-1.89c-1.43-0.13-2.27-0.26-2.6-0.26c-0.32,0-2.93-0.45-2.93-0.45s4.29-1.11,6.97-1.11
			c2.67,0,9.75,0.78,11.32,1.11c1.56,0.32,4.55,2.15,5.4,3.64c0.85,1.5,1.23,1.5,1.23,1.5s-1.43-2.99-2.92-3.84
			c-1.5-0.85,1.17,0.26,1.17,0.26s0.45-0.26,1.62,1.76c1.17,2.02,1.82,1.95,1.82,1.95s-1.69-2.8-2.14-3.25
			c-0.46-0.46,3.71,1.17,4.55,2.08c0.85,0.91,3.39,3.71,3.84,4.49c0.46,0.78,1.57,4.23,1.5,5.21c-0.07,0.98,0.13-2.93-0.2-3.52
			c-0.32-0.58,2.22,2.67,3.19,4.56c0.98,1.89,0.26-1.1-0.78-2.47c-1.04-1.37,1.37,0.45,2.28,1.95c0.9,1.5-1.11-2.4-2.09-3.06
			c-0.97-0.65-3.84-3.77-4.88-5.21c-1.05-1.43-1.24-1.75-1.24-1.75s2.14,1.24,2.99,2.15c0.85,0.91,1.82,2.34,2.74,3.12
			c0.9,0.78-0.07-0.19-0.65-1.3c-0.59-1.11,2.27,0.65,2.79,1.23c0.52,0.59,1.43,2.34,2.54,3.12c1.1,0.78,2.15,1.76,2.15,1.76
			s-0.58-1.82-1.43-2.93c-0.85-1.1-3.19-3.12-4.95-4.29c-1.75-1.17-3.06-2.15-3.06-2.15s5.85,1.5,7.94,1.95
			c2.09,0.46,4.81,1.17,6.9,1.3c2.08,0.13,3.12-0.13,3.12-0.13l-3.71-0.78h3.64c0,0-3.51-0.13-5.27-0.46
			c-1.75-0.33-7.09-1.17-8.39-1.75c-1.3-0.59-2.47-0.91-2.47-0.91s4.36,0.59,6.05,0.59c1.69,0,5.21-0.52,7.22-0.13
			c2.01,0.39,2.54,0.39,2.93,0.59c0.38,0.19,0.19-0.59,0.19-0.59s-2.99-0.78-4.62-0.65c-1.62,0.13-10.99-0.39-11.71-0.59
			c-0.72-0.19,2.86-0.06,5.07-0.91c2.21-0.85,4.29-2.15,4.55-2.21c0.26-0.06-0.52-0.46-0.52-0.46s-3.51,2.02-4.23,2.22
			c-0.72,0.19-4.62,0.45-6.11,0.39c-1.5-0.07-5.4-0.26-7.03-0.91c-1.62-0.65-6.44-2.21-7.61-2.41c-1.17-0.19,7.54-0.85,8.98-0.72
			c1.44,0.13,5.2,0.46,6.38,0.98c1.17,0.52-3.91-1.5-4.56-1.5c-0.65,0,6.11-0.13,9.57,0.19c3.44,0.33-3.32-0.85-4.82-0.91
			c-1.5-0.06,5.99-1.1,8.46-1.3c2.47-0.2-2.4-0.39-5.59,0.19c-3.19,0.58-7.81,0.91-8.92,0.91c-1.11,0,9.57-2.99,11.91-3.71
			c2.34-0.72,5.59-0.78,6.31-0.65c0.72,0.13-1.96-0.85-2.61-0.85c-0.65,0,1.1-0.98,3.97-0.59c2.86,0.39,3.38,0.39,3.38,0.39
			s-3.51-1.36-5.01-1.36c-1.49,0,0.72-1.24,1.89-1.63c1.17-0.39-5.79,2.15-7.8,2.86c-2.02,0.72-14.25,5.73-17.5,5.99
			c-3.26,0.26-6.9,0.85-9.05,0.72c-2.15-0.13-4.55-0.46-5.47-0.52c-0.91-0.06,5.47-2.47,6.38-2.6c0.91-0.13,9.37-1.04,12.04-1.04
			c2.66,0,4.42-0.13,4.42-0.13l0.33-1.5c0,0-6.57,0.19-9.05,0.33c-2.47,0.13-4.95,0.13-4.95,0.13s8.98-2.35,11.78-2.86
			c2.8-0.52,4.29-0.85,6.44-1.17c2.15-0.33,2.02-0.33,4.04,0c2.01,0.32,2.79-0.52,2.79-0.52s-5.14-1.5-9.82-0.52
			c-4.68,0.98-13.59,2.8-13.59,2.8s4.81-2.02,6.31-2.54c1.49-0.52,9.82-3.71,11.9-3.9c2.08-0.2,3.9-0.13,4.48-0.07
			c0.58,0.07,0.33-0.65,0.33-0.65s-4.81-0.52-6.83,0.32c-2.02,0.84-0.4-0.78,2.34-1.3c2.74-0.52,4.81-0.58,4.81-0.58l-0.52-0.85
			l-5.4,0.97c0,0-4.69,1.76-7.68,2.93c-2.99,1.17-9.56,4.1-13.53,6.18c-3.97,2.08-6.45,3.71-10.41,4.82
			c-3.97,1.1-10.47,2.92-12.24,2.92h-1.76c0,0,5.93-2.15,8.85-4.49c2.93-2.34,4.49-4.42,7.35-5.53c2.87-1.11,5.86-2.08,8.72-2.21
			c2.86-0.13,4.75,0.19,5.92,0.65c1.17,0.46,1.82-0.91,1.82-0.91s-4.42-0.85-6.96-0.65c-2.54,0.19-6.18,0.39-7.81,1.17
			c-1.62,0.78-0.78,0-0.78,0s2.86-1.76,8.13-2.41c5.27-0.65,10.47-0.59,12.1-0.72c1.62-0.13,5.98-1.1,7.28-2.02
			c1.3-0.91,2.6-2.28,2.6-2.28l-0.59-0.33c0,0-1.3,1.69-2.02,2.15c-0.71,0.46-3.51,1.63-5.79,1.76c-2.28,0.13-15.55,0.65-18.48,1.95
			c-2.93,1.3-0.77,0.26-0.77,0.26s5.26-3.84,7.6-4.36c2.35-0.52,9.96-2.08,11.32-2.21c1.37-0.13,4.04,0.19,5.34,0.59
			c1.29,0.39,1.49-0.2,1.49-0.2s-2.6-0.85-3.77-0.91c-1.17-0.07-2.93-0.13-2.93-0.13s7.61-0.19,9.44,0.72
			c1.82,0.91-1.69-0.91-3.97-1.24c-2.28-0.33,2.41-0.72,5.14-0.19c2.73,0.52,6.25,0.58,6.25,0.58l-5.99-1.1l4.23-1.82
			c0,0-3.06,0.91-6.25,1.23c-3.19,0.33-8.92,1.04-9.76,1.17c-0.84,0.13-1.76,0.19-1.76,0.19h-0.78c0,0,4.62-3.25,5.53-3.57
			c0.91-0.33,5-1.37,6.83-1.56c1.83-0.19,4.95-0.85,5.92-0.98c0.98-0.13-6.38,0.72-6.38,0.72l5.27-2.34c0,0-6.38,1.76-6.97,2.02
			c-0.58,0.26-2.99,1.24-3.64,1.37c-0.65,0.13,2.34-2.41,3.19-2.8c0.84-0.39,2.28-1.5,4.16-1.82c1.89-0.33,2.54-1.17,2.54-1.17
			s-1.62,0.78-2.34,0.78c-0.72,0-4.04,1.24-4.63,1.82c-0.58,0.59,0.33-0.98,0.98-1.69c0.65-0.71-0.53,0.45-1.57,1.76
			c-1.04,1.3-1.31,0.91-0.26-1.37c1.04-2.28,1.55-4.75,1.55-5.14c0-0.39-1.17,2.15-1.75,3.97c-0.59,1.82-1.24,2.93-1.24,2.93
			s0.65-6.18,0.65-6.57c0-0.39-0.58,4.81-1.37,6.18c-0.78,1.36-5.07,5.14-5.46,5.46c-0.39,0.33-3.25,2.02-4.42,2.41
			c-1.17,0.39-7.87,3.19-8.79,3.25c-0.91,0.07-1.56,0.52-1.56,0.52s-0.06-0.91,2.99-3.13c3.06-2.21,5.79-4.23,7.61-5.27
			c1.82-1.04,6.18-3.25,7.8-3.97c1.63-0.72,1.57-1.17,1.57-1.17l-6.96,3.12c0,0,1.82-2.21,3.64-3.77c1.82-1.56,3.97-3.71,6.63-5.08
			c2.67-1.36,6.38-3.64,6.38-3.64l-0.2-0.33l-6.96,3.71l-2.41,1.04c0,0,2.28-2.99,3.45-4.16c1.17-1.17,2.54-2.47,2.54-2.47
			l-2.74,1.44l4.36-6.77l-0.65,0.26l-3.77,4.88l0.85-2.99l-1.82,3.9c0,0-1.57,3.06-3.45,5.53c-1.89,2.47-5.4,5.98-7.35,7.42
			c-1.95,1.43-6.25,4.69-7.61,5.66c-1.36,0.98,1.95-2.15,3-3.84c1.04-1.69,3.05-4.42,4.48-6.7c1.43-2.28,4.17-6.05,5.66-8.2
			c1.5-2.15,4.69-6.05,5.92-7.16c1.24-1.1,3.64-3.57,3.64-3.57l-1.5-1.3l-5.66,5.73l4.94-9.82l-1.56-0.26l-2.99,7.16l0.45-7.55
			l-1.17,0.19c0,0,0.07,9.24-0.72,10.61c-0.78,1.37-3.97,5.85-4.62,6.7c-0.65,0.85,2.02-4.17,2.47-6.18
			c0.46-2.02-0.13-5.14-0.13-5.14s0.19,3.64-0.33,5.01c-0.52,1.37-2.99,5.46-2.99,5.46s-2.08,4.62-2.86,5.99
			c-0.78,1.37-5.99,11.32-7.68,13.01c-1.69,1.69-7.74,8.4-8.78,9.37c-1.04,0.97-7.55,6.31-11.44,8.13
			c-3.91,1.82-9.63,4.88-10.55,5.27l-0.91,0.39c0,0,4.95-3.52,10.09-9.04c5.14-5.53,9.44-10.02,11.71-11.84
			c2.28-1.82,5.66-3.97,8.45-5.59c2.8-1.63,9.5-5.66,12.04-6.83c2.54-1.17,3.19-1.75,3.19-1.75l0.32-1.3c0,0-12.81,6.83-13.53,7.16
			c-0.72,0.33,5.59-5.01,5.59-5.01l-0.32-0.33l-6.31,4.81l-3.39,1.76c0,0,5.79-7.22,7.16-9.3l1.36-2.08c0,0,3.19-6.18,4.36-8.46
			c1.18-2.28,3.12-8.13,3.12-8.13s-1.95,4.16-2.66,5.01c-0.72,0.85,2.34-6.96,2.34-6.96l-0.72-0.19c0,0-1.43,3.45-1.88,4.29
			c-0.45,0.85,1.11-5.72,1.11-5.72s-1.83,6.7-2.79,8.59c-0.98,1.88-5.47,9.5-5.93,10.54l-0.45,1.04c0,0,4.36-10.54,4.81-12.75
			c0.45-2.21,0.65-3.32,0.65-3.32l-1.1-0.32c0,0-0.78,2.08-1.17,3.25c-0.39,1.17,0-3.9,0.32-5.98c0.33-2.08-0.78-1.5-0.78-1.5
			s-0.59,10.86-1.37,13.4c-0.78,2.54-3.45,9.3-4.17,10.6c-0.71,1.3-5.14,7.42-6.37,8.92c-1.24,1.49-5.4,4.29-5.99,4.81
			c-0.58,0.52-3.38,3.45-3.77,4.1c-0.39,0.65-0.59,0.91-0.59,0.91s1.43-3.64,2.08-5.72c0.65-2.08,3.64-9.57,4.69-11.13
			c1.04-1.56,6.57-5.79,7.94-6.83c1.37-1.04,3.64-1.89,3.64-1.89l0.39-1.04c0,0-1.95,0.71-3.64,1.56c-1.69,0.85-1.95,0.91-1.95,0.91
			s3.06-4.04,4.62-5.07c1.56-1.04,1.17-1.37,1.17-1.37s-3.12,2.08-4.62,3.52c-1.49,1.43-2.41,2.54-2.41,2.54s3.12-5.47,4.42-6.83
			c1.3-1.36,2.02-1.88,2.67-2.27c0.65-0.39,1.62-2.47,1.62-2.47l-2.66,1.63c0,0,2.54-4.81,2.86-5.27c0.32-0.46,1.24-1.89,1.24-1.89
			l-0.72-1.36c0,0-2.34,4.81-3.51,6.51c-1.17,1.69-2.4,3.51-3.12,4.23c-0.72,0.71-5.21,8-5.21,8s4.43-8.52,5.86-12.49
			c1.43-3.97,3.19-8.13,3.19-8.13l-0.46-0.78l-1.76,4.81l0.58-5.33l-0.39-0.52l-0.52,3.9c0,0-1.05-6.57-1.24-6.9
			c-0.2-0.33-0.07,1.04-0.27,5.21c-0.19,4.16-2.99,12.75-3.64,14.31c-0.65,1.56-5.53,10.67-5.98,11.51
			c-0.46,0.85,0.58-5.07,0.71-7.35c0.13-2.28,0.13-7.55,1.31-9.82c1.17-2.28,6.12-13.14,7.23-14.38c1.1-1.23-0.58-1.3-1.63,0.91
			c-1.04,2.21-2.73,5.53-2.73,5.53l2.15-6.8c0,0-1.77,2.77-2.48,5.04c-0.72,2.27-1.24,1.95-1.24,1.95l3-9.63
			c0,0,1.04-5.01-0.59-0.39c-1.63,4.62-2.86,10.21-2.86,10.41c0,0.19,0.72-7.87,1.3-9.37c0.59-1.5,0.13-2.02,0.13-2.02l-0.78-0.46
			l-1.17,3.45l-0.46-3.9l-0.85,1.24l1.1,3.84c0,0-0.85,5.27-1.04,6.63c-0.2,1.37-0.52,3.12-0.52,3.12l-0.26-7.48l-0.58,0.45
			c0,0,0.58,6.83,0.39,8.46c-0.19,1.63-0.84,2.28-0.84,2.28s-1.24-0.19-1.17-1.17c0.07-0.97-0.59-8.13-0.13-8.98
			c0.45-0.84-0.52-0.39-0.52-0.39s-0.27,1.24-0.33,2.8c-0.07,1.56,0,3.12,0,3.12l-3.51-6.96l-0.39,1.24c0,0,2.92,7.61,3.31,9.37
			c0.39,1.76,1.37,6.38,0.98,13.21c-0.39,6.83-0.85,11.13-1.95,14.9c-1.11,3.77-4.43,11.39-5.53,12.55
			c-1.11,1.17-6.44,6.51-7.29,7.42c-0.84,0.91-1.17,1.17-1.17,1.17s4.75-6.96,5.73-8.59c0.98-1.63,4.29-10.15,5.08-12.23
			c0.78-2.08,1.62-10.67,2.4-12.69c0.79-2.02,1.82-5.53,1.82-5.53l-0.26-2.6l-2.34,4.1l1.1-10.21l-1.04,2.66l0.07-5.72l-0.52-0.13
			l-0.26,5.2l-0.84-4.03c0,0,0.19,3.26,0.32,4.88c0.13,1.62-0.07,6.11-0.26,8.26c-0.19,2.15-0.39,5.59-0.39,5.92
			c0,0.33-0.32,1.24-0.32,1.24s-1.11-6.44-1.17-8.2c-0.06-1.76,0.32-6.31,0.65-8c0.32-1.69,1.11-7.61,0.84-9.89
			c-0.26-2.28-0.26-3.32-0.26-3.32l-0.65-0.26c0,0,0.13,3.12,0.13,5.14c0,2.02-0.65,4.36-0.77,4.75c-0.13,0.39-0.98,2.08-0.98,3.19
			c0,1.11-2.27-4.03-1.24-8.07c1.05-4.04,1.3-4.56,1.3-4.56l-1.49-0.52c0,0-0.91,5.01-1.11,5.99c-0.19,0.98-0.46,2.41-0.46,2.41
			l-1.76-3.71l-0.65,1.11c0,0,2.47,5.14,2.47,6.7c0,1.56,0.32,3.64,0.32,3.64l-1.76-2.02l-0.84,0.91c0,0,2.99,4.94,4.16,8.26
			c1.17,3.32,2.74,9.82,2.28,12.69c-0.45,2.86-3.38,10.6-4.75,12.49c-1.37,1.89-5.14,6.31-5.86,7.61c-0.72,1.3-0.84,2.99-2.01,4.55
			c-1.17,1.56-2.41,3.58-3.32,4.43c-0.91,0.85-1.43,1.37-1.43,1.37s0.78-7.22,1.69-11.19c0.91-3.97,2.67-7.35,3.25-8.2
			c0.58-0.84,7.35-7.67,8.66-9.04c1.3-1.36,0-2.41,0-2.41l-4.82,5.01l6.12-7.55l-2.99,2.47l2.8-5.4c0,0-3.39,5.21-4.56,6.7
			c-1.17,1.5-6.44,8.33-6.44,8.33s5.46-8.07,6.96-12.82c1.5-4.75,1.62-6.31,1.62-6.31s-5.72,14.25-6.57,15.03l-0.85,0.78l3.64-12.95
			c0,0,2.02-4.42,2.87-5.73c0.85-1.3,1.1-2.79,1.1-2.79l-0.32-0.13c0,0-0.92,1.63-2.08,2.99c-1.17,1.37-0.65,0.26-0.07-1.95
			c0.59-2.21-0.06-2.67-0.06-2.67s-0.26,2.73-0.98,5.73c-0.72,2.99-0.98,4.16-0.98,4.16s0.78-8.98,0.85-10.99s0.2-4.75,0.2-5.33
			c0-0.59-0.58-0.65-0.58-0.65s-0.2,1.95-0.27,3.64c-0.07,1.69-0.52,1.63-0.52,1.63s0.2-2.21-0.13-3.06
			c-0.32-0.85-0.65-0.85-0.65-0.85s0.2,1.56,0.13,2.67c-0.07,1.11-0.58-0.52-0.98-0.84c-0.39-0.33,1.11,3.06,1.24,5.07
			c0.12,2.02-0.92,10.73-1.7,13.86c-0.78,3.13-1.42,6.71-2.6,9.44c-1.17,2.73-2.08,4.49-2.6,5.27c-0.53,0.78-1.11-2.67-1.83-6.64
			c-0.71-3.97,0.26-12.29,0.97-14.18c0.72-1.89,1.69-4.75,0.52-8.52c-1.17-3.77-2.08-9.04-2.02-11.06
			c0.06-2.02,2.15-10.99,3.12-12.1c0.98-1.11-2.66,3.77-2.99,5.46c-0.32,1.69,1.23-5.85,1.5-6.25c0.26-0.39-1.82,3.32-1.82,4.94
			c0,1.63-0.85,5.34-0.85,5.34s-2.02-5.34-2.15-7.42c-0.12-2.08-0.98-3.58-0.98-3.58s0.46,5.33,0.52,5.99
			c0.07,0.65-2.14-2.93-2.14-2.93s2.27,4.49,3.12,7.61c0.84,3.12,1.17,5.4,1.43,7.22c0.26,1.82,0.4,2.86,0.4,2.86
			s-1.7-2.21-3.19-3.84c-1.5-1.63-4.62-4.42-5.01-5.34c-0.39-0.91-1.5-2.21-1.5-2.21s-0.19,1.24,0.53,2.6
			c0.71,1.36,1.04,3.12,1.24,3.25c0.19,0.13-1.76-1.04-1.89-1.24c-0.12-0.19-2.4,1.11-2.4,1.11s1.88,0.52,4.82,1.89
			c2.92,1.37,6.37,5.47,7.74,7.81c1.36,2.34,0.85,4.88,0.2,7.42c-0.65,2.54-1.89,8-1.89,9.17v1.17c0,0,1.76-14.32,2.02-15.42
			c0.26-1.1,1.36-3.38,2.34-4.81c0.97-1.43,3.97-4.62,5.14-5.01c1.17-0.39,3.64-1.95,3.64-1.95l0.98-1.11l-3.13,1.5l1.37-2.67
			l-2.08,2.8l1.05-3.38c0,0-1.76,3.9-3.19,4.49c-1.44,0.59-1.82,0.07-0.85-1.95c0.98-2.02,4.17-5.92,6.38-7.16
			c2.21-1.24,4.43-3.38,6.51-4.75c2.08-1.37,3.05-2.86,3.05-2.86h-1.04c0,0-4.49,3.25-6.77,5.14c-2.27,1.88,2.35-3.19,3.52-3.9
			c1.18-0.72,3.71-2.08,3.71-2.08l-3.45,1.63l2.99-5.01c0,0-5.73,6.31-6.11,6.7c-0.19,0.19-1.65,2.19-2.02,1.99
			c-0.37-0.19,0.33-2.57,0.33-2.57l0.32-6.64c0,0-0.97,6.44-1.37,8c-0.39,1.56-3.06,5.14-3.97,6.57c-0.91,1.43-1.82,2.47-2.02,3.12
			c-0.19,0.65,1.5-3.97,2.02-6.11c0.52-2.15,1.1-6.77,0.97-7.81c-0.13-1.04-0.26,4.95-1.62,7.81c-1.37,2.86-2.28,6.38-1.76,2.67
			c0.52-3.71,1.1-8.13,1.1-8.72c0-0.59-1.04,3.71-1.37,5.59c-0.32,1.89-0.85,2.54-0.91,0.78c-0.06-1.76,0.26-3.77,0.26-3.77
			s-0.9-1.36-0.77,1.04c0.13,2.4-0.46,3.77-0.13,5.2c0.32,1.43,0.84,3.51,0.59,5.4c-0.26,1.89-1.5,4.23-1.96,4.88
			c-0.45,0.65-2.67,4.81-3.19,6.9c-0.52,2.08-1.88,7.74-1.88,9.17c0,1.43-0.39,2.54-0.39,2.54s-0.65-1.56-0.92-3.32
			c-0.26-1.75-1.1-4.62-0.52-6.25c0.58-1.63,1.56-3.45,1.69-3.64c0.13-0.2-1.76,1.56-1.76,1.56s-0.52-2.08-0.26-2.73
			c0.26-0.65-1.11-0.65-1.3-0.91c-0.2-0.26,0.39,1.75,0.39,2.54c0,0.78,0.33,2.02,0.27,3.12c-0.07,1.1-0.85,0-1.37-2.02
			c-0.52-2.02-1.57-6.05-1.3-6.57c0.25-0.52-1.05,1.11-0.72,1.89c0.33,0.78,0.45-0.2-0.85-1.24c-1.3-1.04-1.04-0.65,0.13,0.98
			c1.17,1.63,1.63,3.38,2.09,4.3c0.45,0.91,1.17,2.67,1.17,3.19c0,0.52,0.26,1.1-0.59,0.39c-0.85-0.71-2.27-3.45-2.67-4.03
			c-0.39-0.59-1.62-4.36-1.62-4.75c0-0.39-0.52,1.04-0.06,2.15c0.45,1.1,0.32,1.3,0.06,0.91c-0.26-0.39-0.26,0.26,0.32,0.98
			c0.59,0.72,3.59,4.56,4.36,6.57c0.78,2.02,1.5,5.47,1.5,5.47s-2.99-3.06-4.23-4.16c-1.24-1.11-4.11-4.81-4.43-5.6
			c-0.33-0.78-0.33,0.46,0.26,1.3c0.58,0.85-0.32,0.19-1.17-0.2c-0.85-0.39,0-0.26,0.98,0.92c0.97,1.17,1.69,2.02,2.28,2.54
			c0.58,0.52-2.28-0.72-2.8-0.85c-0.52-0.13-1.36-0.58-1.43-0.84c-0.07-0.26,0.72,0.85,0.91,0.97c0.2,0.13-0.45,0.26-0.71,0.46
			c-0.27,0.19,1.1-0.19,1.81,0.19c0.71,0.39,5.4,3.65,6.51,4.95c1.11,1.3,4.36,7.09,4.88,8.72c0.52,1.62,1.76,6.38,2.28,9.17
			c0.52,2.8,0.26,10.93-0.13,12.82c-0.4,1.89-2.67,7.94-3.45,9.11c-0.78,1.17-0.39-7.22-2.27-13.8c-1.86-6.49-8.41-14.9-10.7-17.92
			c-2.3-3.02-6.88-11.55-7.52-16.2c-0.64-4.65-1.14-9.6,2.83-15.65c1.83-2.78,3.71-4.79,5.37-6.7c1.94-2.25,3.39-4.35,4.41-7.34
			c1.8-5.27,1.04-9.85-3.38-9.65c-1.62,0.07-2.9,0.52-3.74,1.02c-0.78,0.47-1.36,1.11-1.74,1.58c-0.34,0.42-0.51,0.65-0.73,1.12
			c-0.34,0.73-0.25,1.11-0.25,1.11s0.57-0.58,1.4-1.7c0.78-1.09,2.01-1.74,2.82-2c0.82-0.26,1.65-0.36,2.2-0.33
			c1.1,0.07,3.1,0.44,3.28,3.02c0.18,2.63-0.2,3.94-0.76,5.78c-0.68,2.23-1.78,3.88-2.79,5.15c-1.95,2.47-7.53,8.56-8.76,11.81
			c-0.94,2.49-2.09,5.66-1.81,10.13c0.28,4.47,1.35,8.61,3.55,12.81c2.19,4.19,6.78,10.39,8.83,13.61c2.05,3.22,3.9,7.04,4.42,11.92
			c0.52,4.88,1.5,15.09,0.9,16.39c-0.58,1.3-2.14,4.04-2.79,4.75c-0.65,0.71-2.18,2.88-2.18,2.88L111.21,99.52z"/>
		<path id="antler_1_" class="st3" d="M89.75,99.52l-1.33,0.43l-2.19,0.9l-1.3,1.11c0,0-12.19-11.83-14.53-13.19
			c-2.35-1.36-7.94-3.97-10.35-4.03c-2.4-0.07-5.07,0.65-6.63,1.5c-1.57,0.85-3.97,3.45-4.62,4.62c-0.65,1.17-2.34,4.62-1.04,8.32
			c1.3,3.71,3.64,7.74,5.33,10.54c1.7,2.8,6.96,9.82,7.55,10.54c0.59,0.72,1.3,1.37,2.6,2.34l1.31,0.97l-0.27,0.26
			c0,0-2.86-1.82-3.77-2.67c-0.91-0.85-2.47-2.8-2.47-2.8s1.3,1.76,2.15,3.32c0.85,1.56,1.37,3.12,1.37,3.12H60.9
			c0,0-3.77-6.25-5.14-8.07c-1.37-1.82-2.6-4.3-2.6-4.3l2.28,6.77c0,0,0.32,2.86,0.97,3.84c0.65,0.98,1.95,3.71,2.87,4.94
			c0.91,1.24,0.52,1.17,0.52,1.17l-0.58-0.13l-2.6-4.1l-0.59-1.11v4.23l-0.13,2.54l-0.78-0.33l-0.07-5.92c0,0-1.1-5.99-2.66-9.3
			c-1.56-3.32-4.36-9.17-4.62-9.82c-0.26-0.65-0.45,0.07-0.45,0.07s0.78,2.67,1.1,5.21c0.33,2.54,1.17,6.83,1.69,9.5
			c0.52,2.67,1.75,8.46,2.35,10.48c0.58,2.02,1.17,5.01,1.17,5.01h-0.58l-2.21-8.85l-0.07,7.74h-1.04c0,0-0.2-8.33-0.33-9.82
			c-0.12-1.5-0.52-2.21-0.52-2.21s0.27,1.83-0.52,4.95c-0.78,3.12-2.02,7.48-2.02,7.48l-1.04-0.52c0,0,2.08-7.22,2.21-9.17
			c0.13-1.95-0.13-6.18-0.46-7.55c-0.32-1.37-0.45,5.07-1.23,6.83c-0.78,1.76-2.34,6.51-3.38,7.81c-1.05,1.3-3.52,5.4-3.52,5.4
			l2.02-4.68c0,0,0.13-0.71-0.14-0.71c-0.25,0-2.99,2.67-3.12,2.86c-0.13,0.19-0.45-0.33-0.45-0.33s2.67-3.38,3.97-5.79
			c1.3-2.4,3.12-7.22,3.9-10.54c0.78-3.32,1.37-4.94,0.92-7.94c-0.46-2.99-1.89-11.51-2.02-13.2c-0.13-1.69-0.07-1.96-0.07-1.96
			s-2.02,4.95-3.12,7.42c-1.1,2.47-5.73,12.49-6.5,14.96c-0.78,2.47-2.93,10.41-3,11.97c-0.06,1.56-0.71,1.04-0.71,1.04
			s0.07-1.89,1.17-6.57c1.1-4.68-1.36,3.06-1.36,3.06s-1.3,3.84-1.44,5.01c-0.13,1.17,0.39-3.84,0.39-3.84l-1.63,4.43l-1.62-0.78
			c0,0,3.32-6.83,3.71-8.33c0.39-1.5,2.27-5.14,2.27-5.14s-3.18,5.01-5.46,7.22c-2.27,2.21-4.36,4.49-4.36,4.49l-1.37-0.72l2.74-2.4
			l-3.84,1.69l-0.39-0.52l3.96-1.89c0,0,2.41-2.6,3.46-4.04c1.04-1.43,3.77-4.42,4.55-6.31c0.78-1.88,4.36-7.55,4.49-8.85
			c0.13-1.3-4.68,5.53-6.7,8c-2.02,2.47-4.04,5.86-4.75,7.09c-0.71,1.24-1.05,2.15-1.05,2.15l-1.36-0.33l1.5-3.06l-4.29,5.33
			l-1.04-0.58l5.98-7.42l3.38-4.42c0,0-3.77,3.84-6.44,4.95c-2.67,1.1-5.15,2.28-5.8,2.92c-0.65,0.65-1.62-0.32-1.62-0.32
			s2.02-0.91,2.54-1.24c0.52-0.33-1.04-0.19-2.09-0.52c-1.04-0.33,0.13-1.37,0.13-1.37s0.26,0.72,1.75,0.65
			c1.5-0.06,6.38-1.95,8.72-3.9c2.34-1.95,6.51-7.03,8.07-8.91c1.56-1.89,5.07-5.99,5.07-5.99s-5.79,3.71-7.61,4.88
			c-1.82,1.17-4.88,2.86-5.59,3.45l-0.71,0.59l0.26-1.63c0,0,6.11-3.51,7.48-4.49c1.37-0.98,1.37-0.78,1.37-0.78
			s-5.27,1.36-5.86,1.5c-0.59,0.13,6.44-2.47,7.55-3.45c1.1-0.98,5.27-3.77,6.44-5.14c1.17-1.37,3.12-4.23,3.83-5.73
			c0.72-1.5,3.25-4.23,3.97-4.69c0.72-0.45,1.75-0.52,1.75-0.52s-3.18,0.65-6.9,2.67c-3.71,2.02-7.29,3.9-8.98,5.21
			c-1.69,1.3-6.31,5.34-8.4,9.17c-2.08,3.84-2.53,4.88-3.77,7.29l-1.24,2.41l-1.04-0.78c0,0,1.43-2.34,2.21-3.84
			c0.78-1.5-3.52,5.34-3.52,5.34l-1.04-0.91l4.42-5.53l3.12-5.46l-2.93,2.47c0,0-0.97,0.46-2.79,2.21
			c-1.82,1.76-4.29,4.81-4.29,4.81l-1.3-0.39c0,0,3.58-4.3,4.55-5.01c0.98-0.72,0.33-0.78,0.33-0.78s-4.61,2.02-6.11,2.99
			c-1.5,0.97-2.28,0.19-2.28,0.19s2.47-1.89,3.97-2.6c1.5-0.71,5.34-1.76,5.92-2.28c0.58-0.52,1.88-1.69,1.88-1.69l-9.89,3.38
			l-0.26-0.85l10.15-3.71c0,0,2.93-1.04,3.77-1.89c0.85-0.85,2.54-2.21,2.54-2.21l2.67-2.47c0,0-4.03,2.54-4.81,3
			c-0.78,0.46-3.84,1.89-4.82,2.15c-0.98,0.26-6.05,2.73-6.05,2.73l4.36-2.6l-2.86,0.06c0,0,3.97-0.72,6.31-1.95
			s9.17-4.81,9.82-5.27c0.65-0.46-3.91,0.46-5.99,0.78c-2.08,0.32-5.21,1.43-6.05,3.06c-0.84,1.62-0.84,0.32-0.84,0.32
			s1.56-2.15,2.54-2.8c0.97-0.65-1.89,0.46-3,1.63c-1.1,1.17,0.33-1.63,1.43-2.34c1.11-0.72,4.75-1.43,4.75-1.43
			s-3.18-0.72-3.44-0.98c-0.26-0.26,4.49,0.98,7.28,0.71c2.8-0.26,4.75-1.1,7.29-2.4c2.54-1.3,8.19-3.25,8.19-3.25
			s-7.61,1.43-8.97,1.88c-1.37,0.46-4.76,0.65-5.53,0.85C30.38,86.28,28.95,87,28.95,87s2.02-1.56,2.74-1.63
			c0.71-0.06-2.09-0.26-2.28-0.26c-0.19,0,4.03-0.39,5.4-0.52c1.37-0.13,10.41-1.76,11.84-1.89c1.43-0.13,2.27-0.26,2.6-0.26
			c0.32,0,2.93-0.45,2.93-0.45s-4.29-1.11-6.97-1.11c-2.67,0-9.75,0.78-11.32,1.11c-1.56,0.32-4.55,2.15-5.4,3.64
			c-0.85,1.5-1.23,1.5-1.23,1.5s1.43-2.99,2.92-3.84c1.5-0.85-1.17,0.26-1.17,0.26s-0.45-0.26-1.62,1.76
			c-1.17,2.02-1.82,1.95-1.82,1.95s1.69-2.8,2.14-3.25c0.46-0.46-3.71,1.17-4.55,2.08c-0.85,0.91-3.39,3.71-3.84,4.49
			c-0.46,0.78-1.57,4.23-1.5,5.21c0.07,0.98-0.13-2.93,0.2-3.52c0.32-0.58-2.22,2.67-3.19,4.56c-0.98,1.89-0.26-1.1,0.78-2.47
			c1.04-1.37-1.37,0.45-2.28,1.95c-0.9,1.5,1.11-2.4,2.09-3.06c0.97-0.65,3.84-3.77,4.88-5.21c1.05-1.43,1.24-1.75,1.24-1.75
			s-2.14,1.24-2.99,2.15c-0.85,0.91-1.82,2.34-2.74,3.12c-0.9,0.78,0.07-0.19,0.65-1.3c0.59-1.11-2.27,0.65-2.79,1.23
			c-0.52,0.59-1.43,2.34-2.54,3.12c-1.1,0.78-2.15,1.76-2.15,1.76s0.58-1.82,1.43-2.93c0.85-1.1,3.19-3.12,4.95-4.29
			c1.75-1.17,3.06-2.15,3.06-2.15s-5.85,1.5-7.94,1.95c-2.09,0.46-4.81,1.17-6.9,1.3c-2.08,0.13-3.12-0.13-3.12-0.13l3.71-0.78H0.52
			c0,0,3.51-0.13,5.27-0.46c1.75-0.33,7.09-1.17,8.39-1.75c1.3-0.59,2.47-0.91,2.47-0.91S12.3,86.8,10.6,86.8
			c-1.69,0-5.21-0.52-7.22-0.13c-2.01,0.39-2.54,0.39-2.93,0.59c-0.38,0.19-0.19-0.59-0.19-0.59s2.99-0.78,4.62-0.65
			c1.62,0.13,10.99-0.39,11.71-0.59c0.72-0.19-2.86-0.06-5.07-0.91c-2.21-0.85-4.29-2.15-4.55-2.21c-0.26-0.06,0.52-0.46,0.52-0.46
			s3.51,2.02,4.23,2.22c0.72,0.19,4.62,0.45,6.11,0.39c1.5-0.07,5.4-0.26,7.03-0.91c1.62-0.65,6.44-2.21,7.61-2.41
			c1.17-0.19-7.54-0.85-8.98-0.72c-1.44,0.13-5.2,0.46-6.38,0.98c-1.17,0.52,3.91-1.5,4.56-1.5c0.65,0-6.11-0.13-9.57,0.19
			c-3.44,0.33,3.32-0.85,4.82-0.91c1.5-0.06-5.99-1.1-8.46-1.3c-2.47-0.2,2.4-0.39,5.59,0.19c3.19,0.58,7.81,0.91,8.92,0.91
			c1.11,0-9.57-2.99-11.91-3.71c-2.34-0.72-5.59-0.78-6.31-0.65c-0.72,0.13,1.96-0.85,2.61-0.85c0.65,0-1.1-0.98-3.97-0.59
			C0.52,73.59,0,73.59,0,73.59s3.51-1.36,5.01-1.36c1.49,0-0.72-1.24-1.89-1.63c-1.17-0.39,5.79,2.15,7.8,2.86
			c2.02,0.72,14.25,5.73,17.5,5.99c3.26,0.26,6.9,0.85,9.05,0.72c2.15-0.13,4.55-0.46,5.47-0.52c0.91-0.06-5.47-2.47-6.38-2.6
			C35.65,76.91,27.2,76,24.53,76c-2.66,0-4.42-0.13-4.42-0.13l-0.33-1.5c0,0,6.57,0.19,9.05,0.33c2.47,0.13,4.95,0.13,4.95,0.13
			s-8.98-2.35-11.78-2.86c-2.8-0.52-4.29-0.85-6.44-1.17c-2.15-0.33-2.02-0.33-4.04,0c-2.01,0.32-2.79-0.52-2.79-0.52
			s5.14-1.5,9.82-0.52c4.68,0.98,13.59,2.8,13.59,2.8s-4.81-2.02-6.31-2.54c-1.49-0.52-9.82-3.71-11.9-3.9
			c-2.08-0.2-3.9-0.13-4.48-0.07c-0.58,0.07-0.33-0.65-0.33-0.65s4.81-0.52,6.83,0.32c2.02,0.84,0.4-0.78-2.34-1.3
			c-2.74-0.52-4.81-0.58-4.81-0.58l0.52-0.85l5.4,0.97c0,0,4.69,1.76,7.68,2.93c2.99,1.17,9.56,4.1,13.53,6.18
			c3.97,2.08,6.45,3.71,10.41,4.82c3.97,1.1,10.47,2.92,12.24,2.92h1.76c0,0-5.93-2.15-8.85-4.49c-2.92-2.34-4.49-4.42-7.35-5.53
			c-2.87-1.11-5.86-2.08-8.72-2.21c-2.86-0.13-4.75,0.19-5.92,0.65c-1.17,0.46-1.82-0.91-1.82-0.91s4.42-0.85,6.96-0.65
			c2.54,0.19,6.18,0.39,7.81,1.17c1.62,0.78,0.78,0,0.78,0s-2.86-1.76-8.13-2.41c-5.27-0.65-10.47-0.59-12.1-0.72
			c-1.62-0.13-5.98-1.1-7.28-2.02c-1.3-0.91-2.6-2.28-2.6-2.28l0.59-0.33c0,0,1.3,1.69,2.02,2.15c0.71,0.46,3.51,1.63,5.79,1.76
			c2.28,0.13,15.55,0.65,18.48,1.95c2.93,1.3,0.77,0.26,0.77,0.26s-5.26-3.84-7.6-4.36c-2.35-0.52-9.96-2.08-11.32-2.21
			c-1.37-0.13-4.04,0.19-5.34,0.59c-1.29,0.39-1.49-0.2-1.49-0.2s2.6-0.85,3.77-0.91c1.17-0.07,2.92-0.13,2.92-0.13
			s-7.61-0.19-9.44,0.72c-1.82,0.91,1.69-0.91,3.97-1.24c2.28-0.33-2.41-0.72-5.14-0.19c-2.73,0.52-6.25,0.58-6.25,0.58l5.99-1.1
			l-4.23-1.82c0,0,3.06,0.91,6.25,1.23c3.19,0.33,8.92,1.04,9.76,1.17c0.84,0.13,1.76,0.19,1.76,0.19h0.78c0,0-4.62-3.25-5.53-3.57
			c-0.91-0.33-5-1.37-6.83-1.56c-1.83-0.19-4.95-0.85-5.92-0.98c-0.98-0.13,6.38,0.72,6.38,0.72L7.94,51.8c0,0,6.38,1.76,6.97,2.02
			c0.58,0.26,2.99,1.24,3.64,1.37c0.65,0.13-2.34-2.41-3.19-2.8c-0.84-0.39-2.28-1.5-4.16-1.82c-1.89-0.33-2.54-1.17-2.54-1.17
			s1.62,0.78,2.34,0.78c0.72,0,4.04,1.24,4.63,1.82c0.58,0.59-0.33-0.98-0.98-1.69c-0.65-0.71,0.53,0.45,1.57,1.76
			c1.04,1.3,1.31,0.91,0.26-1.37c-1.04-2.28-1.55-4.75-1.55-5.14c0-0.39,1.17,2.15,1.75,3.97c0.59,1.82,1.24,2.93,1.24,2.93
			s-0.65-6.18-0.65-6.57c0-0.39,0.58,4.81,1.37,6.18c0.78,1.36,5.07,5.14,5.46,5.46c0.39,0.33,3.25,2.02,4.42,2.41
			c1.17,0.39,7.87,3.19,8.79,3.25c0.91,0.07,1.56,0.52,1.56,0.52s0.06-0.91-2.99-3.13c-3.06-2.21-5.79-4.23-7.61-5.27
			c-1.82-1.04-6.18-3.25-7.8-3.97c-1.63-0.72-1.57-1.17-1.57-1.17l6.96,3.12c0,0-1.82-2.21-3.64-3.77
			c-1.82-1.56-3.97-3.71-6.63-5.08c-2.67-1.36-6.38-3.64-6.38-3.64l0.2-0.33l6.96,3.71l2.41,1.04c0,0-2.28-2.99-3.45-4.16
			c-1.17-1.17-2.54-2.47-2.54-2.47l2.74,1.44l-4.36-6.77l0.65,0.26l3.77,4.88L14.7,35.4l1.82,3.9c0,0,1.57,3.06,3.45,5.53
			c1.89,2.47,5.4,5.98,7.35,7.42c1.95,1.43,6.25,4.69,7.61,5.66c1.36,0.98-1.95-2.15-3-3.84c-1.04-1.69-3.05-4.42-4.48-6.7
			c-1.43-2.28-4.17-6.05-5.66-8.2c-1.5-2.15-4.69-6.05-5.92-7.16c-1.24-1.1-3.64-3.57-3.64-3.57l1.5-1.3l5.66,5.73l-4.94-9.82
			L16,22.78l2.99,7.16l-0.45-7.55l1.17,0.19c0,0-0.07,9.24,0.72,10.61c0.78,1.37,3.97,5.85,4.62,6.7c0.65,0.85-2.02-4.17-2.47-6.18
			c-0.46-2.02,0.13-5.14,0.13-5.14s-0.19,3.64,0.33,5.01c0.52,1.37,2.99,5.46,2.99,5.46s2.08,4.62,2.86,5.99
			c0.78,1.37,5.99,11.32,7.68,13.01c1.69,1.69,7.74,8.4,8.78,9.37c1.04,0.97,7.55,6.31,11.44,8.13c3.91,1.82,9.63,4.88,10.55,5.27
			l0.91,0.39c0,0-4.95-3.52-10.09-9.04c-5.14-5.53-9.44-10.02-11.71-11.84c-2.28-1.82-5.66-3.97-8.45-5.59
			c-2.8-1.63-9.5-5.66-12.04-6.83c-2.54-1.17-3.19-1.75-3.19-1.75l-0.32-1.3c0,0,12.81,6.83,13.53,7.16
			c0.72,0.33-5.59-5.01-5.59-5.01l0.32-0.33l6.31,4.81l3.39,1.76c0,0-5.79-7.22-7.16-9.3l-1.36-2.08c0,0-3.19-6.18-4.36-8.46
			c-1.18-2.28-3.12-8.13-3.12-8.13s1.95,4.16,2.66,5.01c0.72,0.85-2.34-6.96-2.34-6.96l0.72-0.19c0,0,1.43,3.45,1.88,4.29
			c0.45,0.85-1.11-5.72-1.11-5.72s1.83,6.7,2.79,8.59c0.98,1.88,5.47,9.5,5.93,10.54l0.45,1.04c0,0-4.36-10.54-4.81-12.75
			c-0.45-2.21-0.65-3.32-0.65-3.32l1.1-0.32c0,0,0.78,2.08,1.17,3.25c0.39,1.17,0-3.9-0.32-5.98c-0.33-2.08,0.78-1.5,0.78-1.5
			s0.59,10.86,1.37,13.4c0.78,2.54,3.45,9.3,4.17,10.6c0.71,1.3,5.14,7.42,6.37,8.92c1.24,1.49,5.4,4.29,5.99,4.81
			c0.58,0.52,3.38,3.45,3.77,4.1c0.39,0.65,0.59,0.91,0.59,0.91s-1.43-3.64-2.08-5.72c-0.65-2.08-3.64-9.57-4.69-11.13
			c-1.04-1.56-6.57-5.79-7.94-6.83c-1.37-1.04-3.64-1.89-3.64-1.89l-0.39-1.04c0,0,1.95,0.71,3.64,1.56
			c1.69,0.85,1.95,0.91,1.95,0.91s-3.06-4.04-4.62-5.07c-1.56-1.04-1.17-1.37-1.17-1.37s3.12,2.08,4.62,3.52
			c1.49,1.43,2.41,2.54,2.41,2.54s-3.12-5.47-4.42-6.83c-1.3-1.36-2.02-1.88-2.67-2.27c-0.65-0.39-1.62-2.47-1.62-2.47l2.66,1.63
			c0,0-2.54-4.81-2.86-5.27c-0.32-0.46-1.24-1.89-1.24-1.89l0.72-1.36c0,0,2.34,4.81,3.51,6.51c1.17,1.69,2.4,3.51,3.12,4.23
			c0.72,0.71,5.21,8,5.21,8s-4.43-8.52-5.86-12.49c-1.43-3.97-3.19-8.13-3.19-8.13l0.46-0.78l1.76,4.81L38,17.77l0.39-0.52l0.52,3.9
			c0,0,1.05-6.57,1.24-6.9c0.2-0.33,0.07,1.04,0.27,5.21c0.19,4.16,2.99,12.75,3.64,14.31c0.65,1.56,5.53,10.67,5.98,11.51
			c0.46,0.85-0.58-5.07-0.71-7.35c-0.13-2.28-0.13-7.55-1.31-9.82c-1.17-2.28-6.12-13.14-7.23-14.38c-1.1-1.23,0.58-1.3,1.63,0.91
			c1.04,2.21,2.73,5.53,2.73,5.53L43,13.38c0,0,1.77,2.77,2.48,5.04c0.72,2.27,1.24,1.95,1.24,1.95l-3-9.63c0,0-1.04-5.01,0.59-0.39
			c1.63,4.62,2.86,10.21,2.86,10.41c0,0.19-0.72-7.87-1.3-9.37c-0.59-1.5-0.13-2.02-0.13-2.02l0.78-0.46l1.17,3.45l0.46-3.9
			l0.85,1.24l-1.1,3.84c0,0,0.85,5.27,1.04,6.63c0.2,1.37,0.52,3.12,0.52,3.12l0.26-7.48l0.58,0.45c0,0-0.58,6.83-0.39,8.46
			c0.19,1.63,0.84,2.28,0.84,2.28s1.24-0.19,1.17-1.17c-0.07-0.97,0.59-8.13,0.13-8.98c-0.45-0.84,0.52-0.39,0.52-0.39
			s0.27,1.24,0.33,2.8c0.07,1.56,0,3.12,0,3.12l3.51-6.96l0.39,1.24c0,0-2.92,7.61-3.31,9.37c-0.39,1.76-1.37,6.38-0.98,13.21
			c0.39,6.83,0.85,11.13,1.95,14.9c1.11,3.77,4.43,11.39,5.53,12.55c1.11,1.17,6.44,6.51,7.29,7.42c0.84,0.91,1.17,1.17,1.17,1.17
			s-4.75-6.96-5.73-8.59c-0.98-1.63-4.29-10.15-5.08-12.23c-0.78-2.08-1.62-10.67-2.4-12.69c-0.78-2.02-1.82-5.53-1.82-5.53
			l0.26-2.6l2.34,4.1l-1.1-10.21l1.04,2.66l-0.07-5.72l0.52-0.13l0.26,5.2l0.84-4.03c0,0-0.19,3.26-0.32,4.88
			c-0.13,1.62,0.07,6.11,0.26,8.26c0.19,2.15,0.39,5.59,0.39,5.92c0,0.33,0.32,1.24,0.32,1.24s1.11-6.44,1.17-8.2
			c0.06-1.76-0.32-6.31-0.65-8c-0.32-1.69-1.11-7.61-0.84-9.89c0.26-2.28,0.26-3.32,0.26-3.32l0.65-0.26c0,0-0.13,3.12-0.13,5.14
			c0,2.02,0.65,4.36,0.77,4.75c0.13,0.39,0.98,2.08,0.98,3.19c0,1.11,2.27-4.03,1.24-8.07c-1.05-4.04-1.3-4.56-1.3-4.56l1.49-0.52
			c0,0,0.91,5.01,1.11,5.99c0.19,0.98,0.46,2.41,0.46,2.41l1.76-3.71l0.65,1.11c0,0-2.47,5.14-2.47,6.7c0,1.56-0.32,3.64-0.32,3.64
			l1.76-2.02l0.84,0.91c0,0-2.99,4.94-4.16,8.26c-1.17,3.32-2.74,9.82-2.28,12.69c0.45,2.86,3.38,10.6,4.75,12.49
			c1.37,1.89,5.14,6.31,5.86,7.61c0.72,1.3,0.84,2.99,2.01,4.55c1.17,1.56,2.41,3.58,3.32,4.43c0.91,0.85,1.43,1.37,1.43,1.37
			s-0.78-7.22-1.69-11.19c-0.91-3.97-2.67-7.35-3.25-8.2c-0.58-0.84-7.35-7.67-8.66-9.04c-1.3-1.36,0-2.41,0-2.41l4.82,5.01
			l-6.12-7.55l2.99,2.47l-2.8-5.4c0,0,3.39,5.21,4.56,6.7c1.17,1.5,6.44,8.33,6.44,8.33s-5.46-8.07-6.96-12.82
			c-1.5-4.75-1.62-6.31-1.62-6.31s5.72,14.25,6.57,15.03l0.85,0.78l-3.64-12.95c0,0-2.02-4.42-2.87-5.73
			c-0.85-1.3-1.1-2.79-1.1-2.79l0.32-0.13c0,0,0.92,1.63,2.08,2.99c1.17,1.37,0.65,0.26,0.07-1.95c-0.59-2.21,0.06-2.67,0.06-2.67
			s0.26,2.73,0.98,5.73c0.72,2.99,0.98,4.16,0.98,4.16s-0.78-8.98-0.85-10.99c-0.07-2.02-0.2-4.75-0.2-5.33
			c0-0.59,0.58-0.65,0.58-0.65s0.2,1.95,0.27,3.64c0.07,1.69,0.52,1.63,0.52,1.63s-0.2-2.21,0.13-3.06
			c0.32-0.85,0.65-0.85,0.65-0.85s-0.2,1.56-0.13,2.67c0.07,1.11,0.58-0.52,0.98-0.84c0.39-0.33-1.11,3.06-1.24,5.07
			c-0.12,2.02,0.92,10.73,1.7,13.86c0.78,3.13,1.42,6.71,2.6,9.44c1.17,2.73,2.08,4.49,2.6,5.27c0.53,0.78,1.11-2.67,1.83-6.64
			c0.71-3.97-0.26-12.29-0.97-14.18c-0.72-1.89-1.69-4.75-0.52-8.52c1.17-3.77,2.08-9.04,2.02-11.06
			c-0.06-2.02-2.15-10.99-3.12-12.1c-0.98-1.11,2.66,3.77,2.99,5.46c0.32,1.69-1.23-5.85-1.5-6.25c-0.26-0.39,1.82,3.32,1.82,4.94
			c0,1.63,0.85,5.34,0.85,5.34s2.02-5.34,2.15-7.42c0.12-2.08,0.98-3.58,0.98-3.58s-0.46,5.33-0.52,5.99
			c-0.07,0.65,2.14-2.93,2.14-2.93s-2.27,4.49-3.12,7.61c-0.84,3.12-1.17,5.4-1.43,7.22c-0.26,1.82-0.4,2.86-0.4,2.86
			s1.7-2.21,3.19-3.84c1.5-1.63,4.62-4.42,5.01-5.34c0.39-0.91,1.5-2.21,1.5-2.21s0.19,1.24-0.53,2.6
			c-0.71,1.36-1.04,3.12-1.24,3.25c-0.19,0.13,1.76-1.04,1.89-1.24c0.12-0.19,2.4,1.11,2.4,1.11s-1.88,0.52-4.82,1.89
			c-2.92,1.37-6.37,5.47-7.74,7.81c-1.36,2.34-0.85,4.88-0.2,7.42c0.65,2.54,1.89,8,1.89,9.17v1.17c0,0-1.76-14.32-2.02-15.42
			c-0.26-1.1-1.36-3.38-2.34-4.81c-0.97-1.43-3.97-4.62-5.14-5.01c-1.17-0.39-3.64-1.95-3.64-1.95l-0.98-1.11l3.13,1.5l-1.37-2.67
			l2.08,2.8l-1.05-3.38c0,0,1.76,3.9,3.19,4.49c1.44,0.59,1.82,0.07,0.85-1.95c-0.98-2.02-4.17-5.92-6.38-7.16
			c-2.21-1.24-4.43-3.38-6.51-4.75c-2.08-1.37-3.05-2.86-3.05-2.86h1.04c0,0,4.49,3.25,6.77,5.14c2.27,1.88-2.35-3.19-3.52-3.9
			c-1.18-0.72-3.71-2.08-3.71-2.08l3.45,1.63l-2.99-5.01c0,0,5.73,6.31,6.11,6.7c0.19,0.19,1.65,2.19,2.02,1.99
			c0.37-0.19-0.33-2.57-0.33-2.57l-0.32-6.64c0,0,0.97,6.44,1.37,8c0.39,1.56,3.06,5.14,3.97,6.57c0.91,1.43,1.82,2.47,2.02,3.12
			c0.19,0.65-1.5-3.97-2.02-6.11c-0.52-2.15-1.1-6.77-0.97-7.81c0.13-1.04,0.26,4.95,1.62,7.81c1.37,2.86,2.28,6.38,1.76,2.67
			c-0.52-3.71-1.1-8.13-1.1-8.72c0-0.59,1.04,3.71,1.37,5.59c0.32,1.89,0.85,2.54,0.91,0.78c0.06-1.76-0.26-3.77-0.26-3.77
			s0.9-1.36,0.77,1.04c-0.13,2.4,0.46,3.77,0.13,5.2c-0.32,1.43-0.84,3.51-0.59,5.4c0.26,1.89,1.5,4.23,1.96,4.88
			c0.45,0.65,2.67,4.81,3.19,6.9c0.52,2.08,1.88,7.74,1.88,9.17c0,1.43,0.39,2.54,0.39,2.54s0.65-1.56,0.92-3.32
			c0.26-1.75,1.1-4.62,0.52-6.25c-0.58-1.63-1.56-3.45-1.69-3.64c-0.13-0.2,1.76,1.56,1.76,1.56s0.52-2.08,0.26-2.73
			c-0.26-0.65,1.11-0.65,1.3-0.91c0.2-0.26-0.39,1.75-0.39,2.54c0,0.78-0.33,2.02-0.27,3.12c0.07,1.1,0.85,0,1.37-2.02
			c0.52-2.02,1.57-6.05,1.3-6.57c-0.25-0.52,1.05,1.11,0.72,1.89c-0.33,0.78-0.45-0.2,0.85-1.24c1.3-1.04,1.04-0.65-0.13,0.98
			c-1.17,1.63-1.63,3.38-2.09,4.3c-0.45,0.91-1.17,2.67-1.17,3.19c0,0.52-0.26,1.1,0.59,0.39c0.85-0.71,2.27-3.45,2.67-4.03
			c0.39-0.59,1.62-4.36,1.62-4.75c0-0.39,0.52,1.04,0.06,2.15c-0.45,1.1-0.32,1.3-0.06,0.91c0.26-0.39,0.26,0.26-0.32,0.98
			c-0.59,0.72-3.59,4.56-4.36,6.57c-0.78,2.02-1.5,5.47-1.5,5.47s2.99-3.06,4.23-4.16c1.24-1.11,4.11-4.81,4.43-5.6
			c0.33-0.78,0.33,0.46-0.26,1.3c-0.58,0.85,0.32,0.19,1.17-0.2c0.85-0.39,0-0.26-0.98,0.92c-0.97,1.17-1.69,2.02-2.28,2.54
			c-0.58,0.52,2.28-0.72,2.8-0.85c0.52-0.13,1.36-0.58,1.43-0.84c0.07-0.26-0.72,0.85-0.91,0.97c-0.2,0.13,0.45,0.26,0.71,0.46
			c0.27,0.19-1.1-0.19-1.81,0.19c-0.71,0.39-5.4,3.65-6.51,4.95c-1.11,1.3-4.36,7.09-4.88,8.72c-0.52,1.62-1.76,6.38-2.28,9.17
			c-0.52,2.8-0.26,10.93,0.13,12.82c0.4,1.89,2.67,7.94,3.45,9.11c0.78,1.17,0.39-7.22,2.27-13.8c1.86-6.49,8.41-14.9,10.7-17.92
			c2.3-3.02,6.88-11.55,7.52-16.2c0.64-4.65,1.14-9.6-2.83-15.65c-1.83-2.78-3.71-4.79-5.37-6.7c-1.94-2.25-3.39-4.35-4.41-7.34
			c-1.8-5.27-1.04-9.85,3.38-9.65c1.62,0.07,2.9,0.52,3.74,1.02c0.78,0.47,1.36,1.11,1.74,1.58c0.34,0.42,0.51,0.65,0.73,1.12
			c0.34,0.73,0.25,1.11,0.25,1.11s-0.57-0.58-1.4-1.7c-0.78-1.09-2.01-1.74-2.82-2c-0.82-0.26-1.65-0.36-2.2-0.33
			c-1.1,0.07-3.1,0.44-3.28,3.02c-0.18,2.63,0.2,3.94,0.76,5.78c0.68,2.23,1.78,3.88,2.79,5.15c1.95,2.47,7.53,8.56,8.76,11.81
			c0.94,2.49,2.09,5.66,1.81,10.13c-0.28,4.47-1.35,8.61-3.55,12.81c-2.19,4.19-6.78,10.39-8.83,13.61
			c-2.05,3.22-3.9,7.04-4.42,11.92c-0.52,4.88-1.5,15.09-0.9,16.39c0.58,1.3,2.14,4.04,2.79,4.75c0.65,0.71,2.18,2.88,2.18,2.88
			L89.75,99.52z"/>
	</g>
	<g id="ears">
		<g id="ear_2_">
			<g>
				<path class="st4" d="M114.05,106.36c0,0,5.13-6.63,7.79-8.26c2.67-1.63,7.42-4.36,10.15-5.34c2.73-0.98,4.62-1.76,5.92-1.69
					c1.3,0.07,1.89,0.26,0.06,2.15c-1.82,1.89-4.49,6.18-5.59,9.37c-1.1,3.19-1.95,6.9-2.34,8.85c-0.39,1.95-0.39,3.13-2.08,4.75
					c-1.69,1.62-3.64,3.71-3.96,4.23c-0.33,0.52,0.84,2.02,2.54,1.95c1.69-0.07-1.95,1.24-2.8-0.65c-0.84-1.88-0.58,0.33,0.07,1.24
					c0.65,0.91,0.92,1.63,1.57,1.95c0.64,0.33-1.76-0.65-2.22-1.75c-0.45-1.11-0.32,0.85,0.2,2.08c0.52,1.24-0.72,0-1.11-1.17
					c-0.4-1.17,0.26,2.67-0.26,4.04c-0.52,1.37,0.13-1.04-0.58-2.67c-0.72-1.63-0.91-1.89-0.91-1.89s-0.52,0.39-0.32,2.34
					c0.19,1.95-0.37-0.4-1-1.76c-0.84-1.84-0.7-3.44-0.7-3.44L114.05,106.36z"/>
				<path class="st5" d="M139.02,91.72c0,0-0.78-0.46-2.22,0.2c-1.43,0.65-3.19,1.37-4.29,3.45c-1.1,2.08-2.6,4.23-3.25,4.82
					c-0.65,0.58-3.38,3.38-3.97,6.25c-0.58,2.87-0.71,7.42-0.71,8.78c0,1.37,0.25,4.17,0.25,4.17"/>
			</g>
			<path class="st6" d="M123.99,120.42c-0.33,0.52,0.84,2.02,2.54,1.95c1.69-0.07-1.95,1.24-2.8-0.65
				c-0.84-1.88-0.58,0.33,0.07,1.24c0.65,0.91,0.92,1.63,1.57,1.95c0.64,0.33-1.76-0.65-2.22-1.75c-0.45-1.11-0.32,0.85,0.2,2.08
				c0.52,1.24-0.72,0-1.11-1.17c-0.4-1.17,0.26,2.67-0.26,4.04c-0.52,1.37,0.13-1.04-0.58-2.67c-0.72-1.63-0.91-1.89-0.91-1.89
				s-0.52,0.39-0.32,2.34c0.19,1.95-0.54-0.33-1-1.76c-0.46-1.43-1.86-2.41-1.86-2.41l5.21-1.92l1.72,0.25L123.99,120.42z"/>
			<path class="st3" d="M124.46,119.12c0,0,0.4,0.07-0.07,0.56c-0.51,0.53-0.68,0.58-1.33,0.31c-0.41-0.18-0.9,0.26,0.18,0.99
				c1.08,0.73,1.78,0.68,1.78,0.68s-1.35,0.49-2.08,0c-0.73-0.49-0.65-0.26-0.55,0.68c0.11,0.94-0.04,1.6-0.29,1.99
				c-0.24,0.38-0.78,0.61-0.78,0.61s0.15-1.38-0.12-2.35c-0.28-0.98-0.77-1.08-0.77-1.08s-0.67,0.64-0.69,1.37
				c-0.02,0.73,0.15,1.74,0.15,1.74s-0.46-0.34-0.69-0.87c-0.3-0.69-0.31-0.94-0.38-1.61c-0.07-0.67-0.18-1.52-0.18-1.52
				L124.46,119.12z"/>
		</g>
		<g id="ear_1_">
			<g>
				<path class="st4" d="M86.91,106.36c0,0-5.13-6.63-7.79-8.26c-2.67-1.63-7.42-4.36-10.15-5.34c-2.73-0.98-4.62-1.76-5.92-1.69
					c-1.3,0.07-1.89,0.26-0.06,2.15c1.82,1.89,4.49,6.18,5.59,9.37c1.1,3.19,1.95,6.9,2.34,8.85c0.39,1.95,0.39,3.13,2.08,4.75
					c1.69,1.62,3.64,3.71,3.96,4.23c0.33,0.52-0.84,2.02-2.54,1.95c-1.69-0.07,1.95,1.24,2.8-0.65c0.84-1.88,0.58,0.33-0.07,1.24
					c-0.65,0.91-0.92,1.63-1.57,1.95c-0.64,0.33,1.76-0.65,2.22-1.75c0.45-1.11,0.32,0.85-0.2,2.08c-0.52,1.24,0.72,0,1.11-1.17
					c0.4-1.17-0.26,2.67,0.26,4.04c0.52,1.37-0.13-1.04,0.58-2.67c0.72-1.63,0.91-1.89,0.91-1.89s0.52,0.39,0.32,2.34
					c-0.19,1.95,0.37-0.4,1-1.76c0.84-1.84,0.7-3.44,0.7-3.44L86.91,106.36z"/>
				<path class="st5" d="M61.94,91.72c0,0,0.78-0.46,2.22,0.2c1.43,0.65,3.19,1.37,4.29,3.45c1.1,2.08,2.6,4.23,3.25,4.82
					c0.65,0.58,3.38,3.38,3.97,6.25c0.58,2.87,0.71,7.42,0.71,8.78c0,1.37-0.25,4.17-0.25,4.17"/>
			</g>
			<path class="st6" d="M76.97,120.42c0.33,0.52-0.84,2.02-2.54,1.95c-1.69-0.07,1.95,1.24,2.8-0.65c0.84-1.88,0.58,0.33-0.07,1.24
				c-0.65,0.91-0.92,1.63-1.57,1.95c-0.64,0.33,1.76-0.65,2.22-1.75c0.45-1.11,0.32,0.85-0.2,2.08c-0.52,1.24,0.72,0,1.11-1.17
				c0.4-1.17-0.26,2.67,0.26,4.04c0.52,1.37-0.13-1.04,0.58-2.67c0.72-1.63,0.91-1.89,0.91-1.89s0.52,0.39,0.32,2.34
				c-0.19,1.95,0.54-0.33,1-1.76c0.46-1.43,1.86-2.41,1.86-2.41l-5.21-1.92l-1.72,0.25L76.97,120.42z"/>
			<path class="st3" d="M76.5,119.12c0,0-0.4,0.07,0.07,0.56c0.51,0.53,0.68,0.58,1.33,0.31c0.41-0.18,0.9,0.26-0.18,0.99
				c-1.08,0.73-1.78,0.68-1.78,0.68s1.35,0.49,2.08,0c0.73-0.49,0.65-0.26,0.55,0.68c-0.11,0.94,0.04,1.6,0.29,1.99
				c0.24,0.38,0.78,0.61,0.78,0.61s-0.15-1.38,0.12-2.35c0.28-0.98,0.77-1.08,0.77-1.08s0.67,0.64,0.69,1.37
				c0.02,0.73-0.15,1.74-0.15,1.74s0.46-0.34,0.69-0.87c0.3-0.69,0.31-0.94,0.38-1.61c0.07-0.67,0.18-1.52,0.18-1.52L76.5,119.12z"
				/>
		</g>
	</g>
	<g id="next_outline">
		<path id="neck_2_" class="st7" d="M100.48,182.25c0.21,0,1.15-4.33,1.48-6.66c0.33-2.34-0.2-2.37,0.94-6.87
			c1.09-4.32,0.45-15,0.91-7.45c0.46,7.55,0.4,3.97,1.89,0.59c0.24-0.54,0.57-1.06,0.7-1.58c0.71-2.74,0.03-4.07,0.15-4.08
			c0.11-0.02,0.72,0.78,0.26,3.64c-0.46,2.86-0.39,3.45-0.13,7.29c0.26,3.84,2.01,7.48,1.62,4.81c-0.39-2.67-0.19-2.27,0.2-4.16
			c0.39-1.88,0.39-1.3,1.69-5.4c1.3-4.1,0.42-6.85,0.45-7.55c0-0.05,0.52-0.26,0.4,3.71c-0.13,3.97-0.53,3.9,1.56,1.11
			c2.09-2.8,0.65-9.3,0.98-6.96c0.33,2.34,0.02,5.03,0.1,5.79c0.09,0.91-0.1,0.72,1.53,4.23c1.62,3.52,1.88,4.49,1.49,3.25
			c-0.39-1.24-0.46-2.28-0.46-4.62c0-2.34,0.26-2.02,1.05-5.99c0.77-3.97-1.7-9.63-1.11-8.59c0.58,1.04,0.45,1.04,1.24,4.1
			c0.78,3.06,0.13,5.21,0.78,3.97c0.65-1.23,0.98-1.56,1.82-4.29c0.85-2.73-2.47-6.9-1.75-5.98c0.72,0.91,1.17,1.88,2.27,4.42
			c1.11,2.54,1.24,4.56,1.37,8.27c0.13,3.71,1.68,4.91,1.76,4.81c0.08-0.1-0.45-0.46-0.52-2.6c-0.06-2.15-0.39-1.69,0.59-6.57
			c0.16-0.77,0.19-1.56,0.12-2.34c-0.36-4.17-3.31-8.14-3.31-8.14s0.33,0.72,3.91,3.97c3.57,3.25,8.4-0.8,8.33-0.91
			c-0.07-0.11-1.37,1.3-5.73,0.13c-4.36-1.17-5.27-6.25-6.25-9.24c-0.98-2.99-2.09-6.11-2.09-9.3c0-3.19,0-4.48,0-4.48h-18.25"/>
		<path id="neck_1_" class="st7" d="M100.48,182.25c-0.21,0-1.15-4.33-1.48-6.66c-0.33-2.34,0.2-2.37-0.94-6.87
			c-1.09-4.32-0.45-15-0.91-7.45c-0.46,7.55-0.4,3.97-1.89,0.59c-0.24-0.54-0.57-1.06-0.7-1.58c-0.71-2.74-0.03-4.07-0.15-4.08
			c-0.11-0.02-0.72,0.78-0.26,3.64c0.46,2.86,0.39,3.45,0.13,7.29c-0.26,3.84-2.01,7.48-1.62,4.81c0.39-2.67,0.19-2.27-0.2-4.16
			c-0.39-1.88-0.39-1.3-1.69-5.4c-1.3-4.1-0.42-6.85-0.45-7.55c0-0.05-0.52-0.26-0.4,3.71c0.13,3.97,0.53,3.9-1.56,1.11
			c-2.09-2.8-0.65-9.3-0.98-6.96c-0.33,2.34-0.02,5.03-0.1,5.79c-0.09,0.91,0.1,0.72-1.53,4.23c-1.62,3.52-1.88,4.49-1.49,3.25
			c0.39-1.24,0.46-2.28,0.46-4.62c0-2.34-0.26-2.02-1.05-5.99c-0.77-3.97,1.7-9.63,1.11-8.59c-0.58,1.04-0.45,1.04-1.24,4.1
			c-0.78,3.06-0.13,5.21-0.78,3.97c-0.65-1.23-0.98-1.56-1.82-4.29c-0.85-2.73,2.47-6.9,1.75-5.98c-0.72,0.91-1.17,1.88-2.27,4.42
			c-1.11,2.54-1.24,4.56-1.37,8.27c-0.13,3.71-1.68,4.91-1.76,4.81c-0.08-0.1,0.45-0.46,0.52-2.6c0.06-2.15,0.39-1.69-0.59-6.57
			c-0.16-0.77-0.19-1.56-0.12-2.34c0.36-4.17,3.31-8.14,3.31-8.14s-0.33,0.72-3.91,3.97c-3.57,3.25-8.4-0.8-8.33-0.91
			c0.07-0.11,1.37,1.3,5.73,0.13c4.36-1.17,5.27-6.25,6.25-9.24c0.98-2.99,2.09-6.11,2.09-9.3c0-3.19,0-4.48,0-4.48h18.25"/>
	</g>
	<g id="neck_detail" class="st0">
		<g id="neck_detail_right" class="st1">
			<path d="M131.22,146.21c1.22-0.37,1.55-0.74,1.55-0.74s-0.9,0.89-2.1,1.37c-1.73,0.91-3.43,0.78-3.68,0.75
				c-0.06-0.01-0.58-0.02-1.64-0.57c-0.57-0.29-1.46-1.13-1.87-1.52c-0.84-0.81-2.15-2.12-1.76-1.74c0.12,0.07,1.91,1.34,2.52,1.74
				c0.7,0.47,0.94,0.56,1.5,0.79c0.53,0.22,1.28,0.53,2.63,0.48S131.22,146.21,131.22,146.21z"/>
			<path d="M117.13,156.15c0,0-0.73,2.74-0.85,3.59c-0.11,0.83,0,1.55-0.03,2.7c-0.04,1.57,0.3,3.18,0.3,3.18s-0.83-1.81-0.94-2.03
				c-0.29-0.61-1.02-2.27-1.2-2.6c-0.18-0.33-0.41-1.08-0.66-1.82c-0.15-0.99,0.04-4.4,0.04-4.4s0.54,3.69,0.81,4.59
				c0.23,0.78,0.93,2.49,0.93,2.49s0.09-1.26,0.19-1.83c0.17-1,1.13-2.86,1.21-3.26C117.02,156.38,117.13,156.15,117.13,156.15
				L117.13,156.15z"/>
			<path d="M119.31,146.44c0.49,1.94,0.67,2.71,0.26,3.9c-0.41,1.18-0.66,1.63-1.01,2.08c-0.34,0.46-0.68,0.18-0.86-0.5
				c-0.11-0.41,0.2,2.38,0.2,2.54c0,0.17,0,0.72,0.1,0.74s1.25-2.28,1.54-3.07c0.26-0.72,0.72-1.92,0.63-3.19
				C120.17,148.93,119.62,146.83,119.31,146.44z"/>
			<path d="M123.85,151.03c0,0,0,1.61-0.14,2.01c-0.15,0.39-0.68,3.76-0.68,4.13c0,0.38,0.07,1.78,0.1,2.33
				c0.12,2.07,0.59,2.51,0.47,2.49c-0.18-0.04-0.67-0.64-0.9-1.13c-0.23-0.49-0.58-1.79-0.75-2.94c-0.06-0.44-0.16-3.17-0.16-3.64
				c0-0.47-0.46-3.1-0.46-3.1s0.71,2.08,0.78,2.88c0.09,1.04,0.41,3.69,0.49,2.97c0.07-0.73,0.36-2.12,0.56-2.86L123.85,151.03z"/>
			<path d="M113.73,155.17c0,0-0.29,1.73-0.63,2.43c-0.33,0.69-0.97,1.36-1.26,1.61c-0.29,0.26-0.48,0.16-0.57-0.34
				c-0.1-0.5-0.21-1.75-0.21-1.89s-0.09,3.37-0.09,3.37s-0.09,1.26,0.04,1.3s0.66-0.79,0.66-0.79s0.58-0.75,0.92-1.23
				c0.34-0.48,0.59-0.83,0.86-1.95C113.72,156.55,113.73,155.17,113.73,155.17z"/>
			<path d="M106.7,158.61c0,0-0.45,1.51-0.8,2.22c-0.3,0.61-0.5,0.8-0.73,1.14c-0.23,0.34-0.86,1.61-1.02,0.28
				c-0.17-1.33-0.33-1.86-0.41-2.42c-0.02-0.18,0.2,3.18,0.2,3.18l0.04,1.16c0,0,0.08,0.72,0.16,1.15c0.07,0.21,0.03,0.38,0.16,0.38
				s0.2-0.39,0.2-0.39l0.44-1.55c0,0,0.81-1.98,0.97-2.34c0.16-0.36,0.27-0.43,0.48-1.22C106.59,159.41,106.7,158.61,106.7,158.61z"
				/>
			<path d="M102.55,170.21c0,0-0.37,1.02-0.5,1.37c-0.33,0.93-0.57,1.6-0.63,2.13c-0.11,0.95-0.03,1.73-0.33,2.85
				c-0.31,1.12-0.54,1.37-0.62,1.37v4.32l0.24-0.68l0.33-1.16l0.53-2.86c0,0,0.35-1.16,0.44-2.46c0.1-1.53,0.09-1.82,0.09-1.82
				l0.04-0.9l0.11-0.62L102.55,170.21z"/>
			<path d="M110.08,162.73c-0.21,0.57-1.16,2.01-1.37,2.42c-0.14,0.28-0.61,1.36-0.73,1.84c-0.12,0.49-0.37,1.78-0.37,1.78
				s-0.4-3.23-0.46-4.16c-0.06-0.93-0.17-2.44-0.18-2.92c-0.01-0.47-0.06-2.55-0.06-2.55s-0.27,1.79-0.35,3.09
				c-0.08,1.3,0.01,3.14,0.01,3.14l0.21,2.24c0,0,0.01,0.83,0.19,1.56c0.17,0.73,0.47,2.02,0.47,2.02l0.5,1.26
				c0,0,0.22,0.36,0.35,0.36s0.06-0.72,0.06-0.72s-0.23-1.21-0.27-2.2c0.3-1.76,0.51-2.61,0.51-2.61s0.27-0.9,0.64-2L110.08,162.73z
				"/>
		</g>
		<g id="neck_detail_left" class="st1">
			<path d="M69.74,146.21c-1.22-0.37-1.55-0.74-1.55-0.74s0.9,0.89,2.1,1.37c1.73,0.91,3.43,0.78,3.68,0.75
				c0.06-0.01,0.58-0.02,1.64-0.57c0.57-0.29,1.46-1.13,1.87-1.52c0.84-0.81,2.15-2.12,1.76-1.74c-0.12,0.07-1.91,1.34-2.52,1.74
				c-0.7,0.47-0.94,0.56-1.5,0.79c-0.53,0.22-1.28,0.53-2.63,0.48C71.23,146.7,69.74,146.21,69.74,146.21z"/>
			<path d="M83.83,156.15c0,0,0.73,2.74,0.85,3.59c0.11,0.83,0,1.55,0.03,2.7c0.04,1.57-0.3,3.18-0.3,3.18s0.83-1.81,0.94-2.03
				c0.29-0.61,1.02-2.27,1.2-2.6c0.18-0.33,0.41-1.08,0.66-1.82c0.15-0.99-0.04-4.4-0.04-4.4s-0.54,3.69-0.81,4.59
				c-0.23,0.78-0.93,2.49-0.93,2.49s-0.09-1.26-0.19-1.83c-0.17-1-1.13-2.86-1.21-3.26C83.94,156.38,83.83,156.15,83.83,156.15
				L83.83,156.15z"/>
			<path d="M81.65,146.44c-0.49,1.94-0.67,2.71-0.26,3.9c0.41,1.18,0.66,1.63,1.01,2.08c0.34,0.46,0.68,0.18,0.86-0.5
				c0.11-0.41-0.2,2.38-0.2,2.54c0,0.17,0,0.72-0.1,0.74s-1.25-2.28-1.54-3.07c-0.26-0.72-0.72-1.92-0.63-3.19
				C80.79,148.93,81.34,146.83,81.65,146.44z"/>
			<path d="M77.11,151.03c0,0,0,1.61,0.14,2.01c0.15,0.39,0.68,3.76,0.68,4.13c0,0.38-0.07,1.78-0.1,2.33
				c-0.12,2.07-0.59,2.51-0.47,2.49c0.18-0.04,0.67-0.64,0.9-1.13c0.23-0.49,0.58-1.79,0.75-2.94c0.06-0.44,0.16-3.17,0.16-3.64
				c0-0.47,0.46-3.1,0.46-3.1s-0.71,2.08-0.78,2.88c-0.09,1.04-0.41,3.69-0.49,2.97c-0.07-0.73-0.36-2.12-0.56-2.86L77.11,151.03z"
				/>
			<path d="M87.23,155.17c0,0,0.29,1.73,0.63,2.43c0.33,0.69,0.97,1.36,1.26,1.61c0.29,0.26,0.48,0.16,0.57-0.34
				c0.1-0.5,0.21-1.75,0.21-1.89s0.09,3.37,0.09,3.37s0.09,1.26-0.04,1.3s-0.66-0.79-0.66-0.79s-0.58-0.75-0.92-1.23
				c-0.34-0.48-0.59-0.83-0.86-1.95C87.24,156.55,87.23,155.17,87.23,155.17z"/>
			<path d="M94.26,158.61c0,0,0.45,1.51,0.8,2.22c0.3,0.61,0.5,0.8,0.73,1.14c0.23,0.34,0.86,1.61,1.02,0.28
				c0.17-1.33,0.33-1.86,0.41-2.42c0.02-0.18-0.2,3.18-0.2,3.18l-0.04,1.16c0,0-0.08,0.72-0.16,1.15c-0.07,0.21-0.03,0.38-0.16,0.38
				c-0.13,0-0.2-0.39-0.2-0.39l-0.44-1.55c0,0-0.81-1.98-0.97-2.34c-0.16-0.36-0.27-0.43-0.48-1.22
				C94.37,159.41,94.26,158.61,94.26,158.61z"/>
			<path d="M98.41,170.21c0,0,0.37,1.02,0.5,1.37c0.33,0.93,0.57,1.6,0.63,2.13c0.11,0.95,0.03,1.73,0.33,2.85
				c0.31,1.12,0.54,1.37,0.62,1.37v4.32l-0.24-0.68l-0.33-1.16l-0.53-2.86c0,0-0.35-1.16-0.44-2.46c-0.1-1.53-0.09-1.82-0.09-1.82
				l-0.04-0.9l-0.11-0.62L98.41,170.21z"/>
			<path d="M90.88,162.73c0.21,0.57,1.16,2.01,1.37,2.42c0.14,0.28,0.61,1.36,0.73,1.84c0.12,0.49,0.37,1.78,0.37,1.78
				s0.4-3.23,0.46-4.16c0.06-0.93,0.17-2.44,0.18-2.92c0.01-0.47,0.06-2.55,0.06-2.55s0.27,1.79,0.35,3.09
				c0.08,1.3-0.01,3.14-0.01,3.14l-0.21,2.24c0,0-0.01,0.83-0.19,1.56s-0.47,2.02-0.47,2.02l-0.5,1.26c0,0-0.22,0.36-0.35,0.36
				s-0.06-0.72-0.06-0.72s0.23-1.21,0.27-2.2c-0.3-1.76-0.51-2.61-0.51-2.61s-0.27-0.9-0.64-2L90.88,162.73z"/>
		</g>
	</g>
	<path id="face_1_" class="st4" d="M100.48,105.02c0,0-0.84,0.07-3.37-1.82c-2.54-1.89-3.02-2.24-4-3.55
		c-0.97-1.3-2.66-0.45-4.49,0.19c-1.83,0.65-4.55,1.3-4.42,4.29c0.13,2.99,0.65,5.34,0.06,7.48c-0.59,2.15-1.41,4.75-1.76,6.96
		c-0.35,2.22-0.49,5.27,0.58,7.81c1.07,2.52,3,5.6,4.04,8.26c1.04,2.67,1.69,5.4,2.02,7.68c0.32,2.28,1.24,3.9,2.47,5.14
		c1.24,1.24,2.34,2.15,4.62,2.54c2.28,0.39,3.16,0.61,4.26,0.55h-0.03c1.11,0.06,1.98-0.16,4.26-0.55c2.27-0.39,3.38-1.3,4.62-2.54
		c1.23-1.24,2.15-2.86,2.47-5.14c0.33-2.28,0.98-5.01,2.02-7.68c1.04-2.66,2.97-5.74,4.04-8.26c1.08-2.54,0.94-5.59,0.58-7.81
		c-0.35-2.21-1.17-4.81-1.76-6.96c-0.59-2.15-0.07-4.49,0.06-7.48c0.13-2.99-2.6-3.64-4.42-4.29c-1.82-0.65-3.51-1.5-4.49-0.19
		c-0.98,1.3-1.46,1.66-4,3.55C101.32,105.09,100.48,105.02,100.48,105.02"/>
	<g id="nose_mouth_1_">
		<path d="M113.91,134.48c0,0-0.51,0.89-0.63,1.23c-0.13,0.34-0.33,0.67-0.48,0.98c-0.15,0.31-0.28,0.51-0.37,0.7
			c-0.1,0.18-0.44-0.64-0.57-1.05c-0.13-0.41-0.27-0.7-0.48-1.15c-0.21-0.45-0.7-1.12-0.7-1.12l0.49,1.36l0.22,0.71l0.33,1.65
			l0.14,1.06l0.05,1.13l-0.05,1.81l0.45-2.11l0.32-1.35l0.47-1.57l0.33-1.05L113.91,134.48z"/>
		<path d="M87.05,134.48c0,0,0.51,0.89,0.63,1.23c0.13,0.34,0.33,0.67,0.48,0.98c0.15,0.31,0.28,0.51,0.37,0.7
			c0.1,0.18,0.44-0.64,0.57-1.05c0.13-0.41,0.27-0.7,0.48-1.15c0.21-0.45,0.7-1.12,0.7-1.12l-0.49,1.36l-0.22,0.71l-0.33,1.65
			l-0.14,1.06l-0.05,1.13l0.05,1.81l-0.45-2.11l-0.32-1.35l-0.47-1.57l-0.33-1.05L87.05,134.48z"/>
		<path class="st5" d="M111.72,142.88c0,0,0.31-2.91,0-5.06c-0.31-2.14-1.22-4.06-1.22-4.06s-0.51-0.84-0.32-0.52"/>
		<path class="st5" d="M89.24,142.88c0,0-0.31-2.91,0-5.06c0.31-2.14,1.22-4.06,1.22-4.06s0.51-0.84,0.32-0.52"/>
		<path class="st5" d="M89.4,143.43c0,0,1.84,1.33,3.91,1.82c2.06,0.49,4.31,0.78,5.48,0.83c1.18,0.05,1.63,0.07,1.71,0.07h-0.03
			c0.08,0,0.54-0.02,1.71-0.07c1.17-0.05,3.41-0.34,5.48-0.83c2.06-0.49,3.91-1.82,3.91-1.82"/>
		<path class="st8" d="M100.48,118.7c0,0-1.25,1.34-1.59,1.63c-0.34,0.29,0.95,0.13,0.63,0.64c-0.43,0.47-0.64,0.81-0.78,1.03
			c-0.14,0.22-0.46,0.7-0.41,1.1c0.05,0.39,0.36-0.02,0.93-0.22c0.56-0.19,0.83-0.39,0.19,0.29c-0.63,0.68-1.48,1.32-1.73,1.83
			c-0.26,0.5-0.36,1.21-0.03,0.97c0.33-0.24,1.02-0.77,0.98-0.66c-0.04,0.11-0.27,0.71-0.9,1.2c-0.64,0.48-0.88,0.61-1.02,1.07
			c-0.15,0.47,0.24,0.86,1,0.29c0.76-0.56,0.89-0.38,0.93-0.22c0.03,0.16-0.02,0.22,0,0.71c0.02,0.49,0.2,0.68,0.51,0.83
			s1.1,0.21,1.28,0.07h0.05c0.18,0.13,0.97,0.08,1.28-0.07s0.49-0.34,0.51-0.83c0.02-0.49-0.03-0.55,0-0.71
			c0.03-0.16,0.17-0.34,0.93,0.22c0.76,0.56,1.15,0.17,1-0.29c-0.15-0.46-0.39-0.59-1.02-1.07c-0.63-0.49-0.86-1.08-0.9-1.2
			c-0.04-0.12,0.64,0.42,0.98,0.66c0.33,0.24,0.23-0.47-0.03-0.97c-0.25-0.51-1.1-1.15-1.73-1.83c-0.64-0.68-0.37-0.49,0.19-0.29
			c0.56,0.19,0.88,0.61,0.93,0.22c0.05-0.39-0.27-0.88-0.41-1.1c-0.14-0.22-0.36-0.56-0.78-1.03c-0.32-0.51,0.97-0.36,0.63-0.64
			C101.73,120.04,100.48,118.7,100.48,118.7z"/>
		<path class="st9" d="M100.48,146.93c0,0-0.77,0.27-1.56,0.31c-0.68,0.03-1.24-0.06-1.82-0.26c-0.59-0.19-1.89-1.33-1.89-1.33
			s0.89,0.14,1.58-0.04c0.68-0.18,1.76-0.31,2.02-0.88c0.26-0.57,0.1-1.04,0.27-1.74c0.19-0.7,0.55-1.23,0.49-1.55
			c-0.07-0.31-0.13-1.09-0.16-1.43c-0.04-0.34-0.07-0.65-0.67-0.96c-0.61-0.31-1.13,0.86-1.01,1.51c0.11,0.65,0.68,2.12,0.47,1.97
			c-0.21-0.15-0.73-0.5-1.1-0.99c-0.37-0.49-0.6-1.02-0.77-1.76c-0.1-0.47-0.27-1.31-0.14-2.06c0.12-0.75,0.19-0.81,0.73-1.5
			c0.54-0.69,1.87-1.38,2.16-1.46c0.29-0.08-0.24-0.52-0.53-0.77c-0.29-0.24,0.28-0.65,0.66-0.6c0.4,0.05,0.67-0.03,0.77-0.39
			c0.1-0.36-0.61-0.31-0.7-0.57c-0.1-0.26,0.96-0.5,1.17-0.68h0.07c0.21,0.18,1.24,0.43,1.14,0.68c-0.09,0.26-0.8,0.21-0.7,0.57
			c0.1,0.36,0.37,0.44,0.77,0.39c0.39-0.05,0.96,0.36,0.66,0.6c-0.29,0.24-0.83,0.69-0.53,0.77c0.29,0.08,1.62,0.78,2.16,1.46
			c0.54,0.68,0.61,0.75,0.73,1.5c0.13,0.75-0.04,1.59-0.14,2.06c-0.17,0.73-0.39,1.27-0.77,1.76c-0.37,0.49-0.89,0.85-1.1,0.99
			c-0.21,0.15,0.36-1.32,0.47-1.97c0.12-0.65-0.4-1.82-1.01-1.51c-0.6,0.31-0.63,0.62-0.67,0.96c-0.03,0.34-0.09,1.12-0.16,1.43
			c-0.06,0.31,0.31,0.85,0.49,1.55c0.18,0.7,0.01,1.17,0.27,1.74c0.26,0.57,1.34,0.7,2.02,0.88c0.69,0.18,1.58,0.04,1.58,0.04
			s-1.3,1.13-1.89,1.33c-0.58,0.2-1.14,0.29-1.82,0.26c-0.79-0.04-1.56-0.31-1.56-0.31H100.48z"/>
	</g>
	<g id="eyes">
		<g id="eye-right">
			<path d="M119.4,111.5c-0.12-0.13-0.84,2-3.03,2.78c-2.19,0.78-2.92,0.73-3.47,1.66c-0.54,0.93-1.47,2.39-1.47,2.39
				s-1.49,2.03,1.37,1.87c2.87-0.16,3.66-0.65,4.05-0.99c0.38-0.34-0.72,0.01-1.7,0.26c-1.07,0.28-2.78,0.21-3.27,0.01
				c-0.48-0.19,3.6-0.52,4.82-1.69c1.21-1.17,0.77-1.81,1.41-2.59c0.64-0.78,1.02-1.56,1.66-1.81c0.64-0.24-0.98,0.05-1.56,0.54
				C117.64,114.43,119.51,111.63,119.4,111.5"/>
			<path class="st3" d="M112.98,117.31c0,0.36,0.29,0.65,0.65,0.65c0.36,0,0.65-0.29,0.65-0.65c0-0.36-0.29-0.65-0.65-0.65
				C113.28,116.65,112.98,116.95,112.98,117.31"/>
			<path class="st3" d="M114.27,116.51c0,0.29,0.24,0.53,0.53,0.53c0.29,0,0.53-0.24,0.53-0.53c0-0.29-0.23-0.53-0.53-0.53
				C114.51,115.98,114.27,116.22,114.27,116.51"/>
		</g>
		<g id="eye-left">
			<path d="M81.56,111.5c0.12-0.13,0.84,2,3.03,2.78c2.19,0.78,2.92,0.73,3.47,1.66c0.54,0.93,1.47,2.39,1.47,2.39
				s1.49,2.03-1.37,1.87c-2.87-0.16-3.66-0.65-4.05-0.99c-0.38-0.34,0.72,0.01,1.7,0.26c1.07,0.28,2.78,0.21,3.27,0.01
				c0.48-0.19-3.6-0.52-4.82-1.69c-1.21-1.17-0.77-1.81-1.41-2.59c-0.64-0.78-1.02-1.56-1.66-1.81c-0.64-0.24,0.98,0.05,1.56,0.54
				C83.32,114.43,81.45,111.63,81.56,111.5"/>
			<path class="st3" d="M87.97,117.31c0,0.36-0.29,0.65-0.65,0.65c-0.36,0-0.65-0.29-0.65-0.65c0-0.36,0.29-0.65,0.65-0.65
				C87.68,116.65,87.97,116.95,87.97,117.31"/>
			<path class="st3" d="M86.69,116.51c0,0.29-0.24,0.53-0.53,0.53c-0.29,0-0.53-0.24-0.53-0.53c0-0.29,0.23-0.53,0.53-0.53
				C86.45,115.98,86.69,116.22,86.69,116.51"/>
		</g>
	</g>
</g>
</svg>
